<svg id="Layer_5" enable-background="new 0 0 64 64" height="512" viewBox="0 0 64 64" width="512" xmlns="http://www.w3.org/2000/svg" xmlns:xlink="http://www.w3.org/1999/xlink"><linearGradient id="SVGID_1_" gradientUnits="userSpaceOnUse" x1="32" x2="32" y1="63" y2="1"><stop offset="0" stop-color="#9f2fff"/><stop offset="1" stop-color="#0bb1d3"/></linearGradient><path d="m13 47h3v3h-2v-1h-3c-.552 0-1 .449-1 1s.448 1 1 1h2c1.654 0 3 1.346 3 3s-1.346 3-3 3v2h-2v-2h-3v-3h2v1h3c.552 0 1-.449 1-1s-.448-1-1-1h-2c-1.654 0-3-1.346-3-3s1.346-3 3-3v-2h2zm40-32h-2v2c-1.654 0-3 1.346-3 3s1.346 3 3 3h2c.552 0 1 .449 1 1s-.448 1-1 1h-3v-1h-2v3h3v2h2v-2c1.654 0 3-1.346 3-3s-1.346-3-3-3h-2c-.552 0-1-.449-1-1s.448-1 1-1h3v1h2v-3h-3zm10 7c0 6.065-4.935 11-11 11s-11-4.935-11-11 4.935-11 11-11 11 4.935 11 11zm-2 0c0-4.962-4.037-9-9-9s-9 4.038-9 9 4.037 9 9 9 9-4.038 9-9zm-9 13h11v11h-2v-7.586l-4 4v18.586h6v2h-51c-6.065 0-11-4.935-11-11 0-3.72 1.861-7.008 4.695-9h-4.695v-4.505c0-3.697 2.318-7.073 5.769-8.4l7.388-2.841.618-2.473c-1.715-1.073-2.991-2.773-3.511-4.78h-.264c-2.206 0-4-1.794-4-4 0-.865.283-1.662.752-2.317-.484-1.108-.752-2.312-.752-3.52 0-2.942 1.461-5.673 3.909-7.305 1.825-1.216 3.947-1.859 6.139-1.859h3.064c2.708 0 5.354.51 7.868 1.516l2.535 1.014-1.957 2.936 2.442.813v1.559c0 1.693-.22 3.377-.635 5.018.397.621.635 1.354.635 2.144 0 2.206-1.794 4-4 4h-.263c-.519 2.008-1.796 3.708-3.511 4.781l.618 2.473 7.388 2.841c3.45 1.327 5.769 4.703 5.769 8.4v4.505h-18.696c1.751 1.23 3.124 2.956 3.922 4.974l3.737-3.27 8.954 6.964 7.082-7.082 5 5 12.586-12.586h-7.586zm-5 17.414-2-2v10.586h4v-10.586zm-5-5-3 3v10.586h4v-12.586zm-9 5.297v8.289h4v-8.586l-1.917 1.917zm-6 8.289h4v-9.844l-4-3.111zm2-45c0-1.103-.897-2-2-2v4c1.103 0 2-.897 2-2zm-18 2v-4c-1.103 0-2 .897-2 2s.897 2 2 2zm1.293-7.708c.834-.833 1.942-1.292 3.121-1.292h7.172c1.179 0 2.287.459 3.121 1.292.487.487.828 1.074 1.043 1.708h.25c.591 0 1.148.137 1.654.368.226-1.162.346-2.344.346-3.53v-.117l-3.559-1.186 2.043-3.064-.246-.098c-2.276-.911-4.674-1.373-7.126-1.373h-3.064c-1.795 0-3.534.526-5.029 1.522-1.89 1.261-3.019 3.37-3.019 5.642 0 .744.13 1.487.371 2.191.499-.224 1.048-.355 1.629-.355h.25c.215-.634.556-1.221 1.043-1.708zm6.708 13.708c3.308 0 5.999-2.691 5.999-6v-4.586c0-.645-.251-1.251-.707-1.707s-1.063-.707-1.707-.707h-7.172c-.645 0-1.251.251-1.707.708-.456.455-.707 1.061-.707 1.706v4.586c0 3.308 2.692 6 6.001 6zm-2.381 1.638-.575 2.303c.462 1.235 1.631 2.059 2.955 2.059 1.325 0 2.494-.824 2.955-2.057l-.576-2.304c-.751.234-1.55.361-2.378.361-.829 0-1.628-.127-2.381-.362zm18.38 15.362v-2.505c0-2.875-1.803-5.501-4.487-6.534l-6.969-2.681c-.887 1.654-2.617 2.72-4.544 2.72-1.926 0-3.656-1.065-4.543-2.72l-6.97 2.681c-2.684 1.032-4.487 3.658-4.487 6.534v2.505zm-23 20c4.963 0 9-4.038 9-9s-4.037-9-9-9-9 4.038-9 9 4.037 9 9 9zm6.305 0h6.695v-12.797l-2.175 1.903c.108.617.175 1.247.175 1.894 0 3.72-1.861 7.008-4.695 9zm36.695-16.586-4 4v12.586h4z" fill="url(#SVGID_1_)"/></svg>