<svg id="Layer_5" enable-background="new 0 0 64 64" height="512" viewBox="0 0 64 64" width="512" xmlns="http://www.w3.org/2000/svg" xmlns:xlink="http://www.w3.org/1999/xlink"><linearGradient id="SVGID_1_" gradientUnits="userSpaceOnUse" x1="32" x2="32" y1="63" y2="1"><stop offset="0" stop-color="#9f2fff"/><stop offset="1" stop-color="#0bb1d3"/></linearGradient><path d="m53 15v-1c0-.551-.448-1-1-1-1.654 0-3-1.346-3-3v-3h2v-2h2v2.184c1.161.414 2 1.514 2 2.816h-2c0-.551-.448-1-1-1h-1v1c0 .551.448 1 1 1 1.654 0 3 1.346 3 3v3h-2v2h-2v-2.184c-1.161-.414-2-1.514-2-2.816h2c0 .551.448 1 1 1zm10-3c0 .834-.102 1.644-.278 2.426.169.508.278 1.032.278 1.574v32c0 2.757-2.243 5-5 5h-16v4h1c2.757 0 5 2.243 5 5v1h-32v-1c0-2.757 2.243-5 5-5h1v-4h-16c-2.757 0-5-2.243-5-5v-32c0-2.757 2.243-5 5-5h6.589c1.19-2.928 4.061-5 7.411-5s6.221 2.072 7.411 5h13.64c.507-5.598 5.221-10 10.949-10 6.065 0 11 4.935 11 11zm-20 0c0 4.962 4.037 9 9 9s9-4.038 9-9-4.037-9-9-9-9 4.038-9 9zm-30.411 5h-5.589v30h33.5l3-4h13.5v-21.214c-1.502.77-3.199 1.214-5 1.214-3.081 0-5.867-1.277-7.866-3.326l-6.352 4.083c.13.394.218.807.218 1.243 0 2.206-1.794 4-4 4s-4-1.794-4-4c0-.571.124-1.112.341-1.603l-4.722-3.71c-1.446 1.428-3.431 2.313-5.619 2.313-.701 0-1.377-.1-2.025-.27l-2.632 8.043c.999.728 1.657 1.899 1.657 3.227 0 2.206-1.794 4-4 4s-4-1.794-4-4 1.794-4 4-4c.163 0 .318.029.476.048l2.638-8.061c-1.584-.885-2.836-2.292-3.525-3.987zm.411 14c-1.103 0-2 .897-2 2s.897 2 2 2 2-.897 2-2-.897-2-2-2zm29.215-13.999h-14.804c-.157.387-.347.756-.56 1.11l4.736 3.721c.672-.514 1.502-.832 2.413-.832 1.046 0 1.992.412 2.705 1.072l6.157-3.958c-.239-.356-.451-.73-.647-1.113zm-10.215 7.999c0 1.103.897 2 2 2s2-.897 2-2-.897-2-2-2-2 .897-2 2zm-4.069-12c.041.328.069.661.069 1 0 .34-.028.672-.07 1.001h13.496c-.184-.646-.314-1.313-.376-2.001zm-13.931 1c0 3.309 2.691 6 6 6s6-2.691 6-6-2.691-6-6-6-6 2.691-6 6zm29 45h-22c-1.304 0-2.416.836-2.829 2h27.658c-.413-1.164-1.525-2-2.829-2zm-3-6h-16v4h16zm21-34.695c-.569.81-1.239 1.544-2 2.174v22.521c0 1.103-.897 2-2 2h-12.5l-2.4 3.2c-.375.5-.974.8-1.6.8h-33.5c-1.103 0-2-.897-2-2v-30c0-1.103.897-2 2-2h5.069c-.041-.328-.069-.661-.069-1s.028-.672.069-1h-6.069c-1.654 0-3 1.346-3 3v32c0 1.654 1.346 3 3 3h52c1.654 0 3-1.346 3-3zm-3-5.305c.552 0 1-.448 1-1s-.448-1-1-1-1 .448-1 1 .448 1 1 1zm-11-1c0-.552-.448-1-1-1s-1 .448-1 1 .448 1 1 1 1-.448 1-1zm-31 2c0-2.206 1.794-4 4-4s4 1.794 4 4-1.794 4-4 4-4-1.794-4-4zm2 0c0 1.103.897 2 2 2s2-.897 2-2-.897-2-2-2-2 .897-2 2zm39 35h2v-2h-2zm-8 0h6v-2h-6zm-4 0h2v-2h-2zm10-8h-22v-8h6v6h2v-10h6v10h2v-14h6zm-18-6h-2v4h2zm6 4h2v-8h-2zm10-12h-2v12h2zm-42 12h-2v2h2zm20 0h-18v2h18zm-20 4h-2v2h2zm20 0h-18v2h18z" fill="url(#SVGID_1_)"/></svg>